<svg width="467" height="348" viewBox="0 0 467 348" fill="none" xmlns="http://www.w3.org/2000/svg">
<path d="M0.982239 305.148H467V305.381H0.982239V305.148Z" fill="#E6E6E6"/>
<path d="M115.007 315.019H147.069V315.252H115.007V315.019Z" fill="#E6E6E6"/>
<path d="M363.507 315.131H381.551V315.364H363.507V315.131Z" fill="#E6E6E6"/>
<path d="M233.059 314.59H269.632V314.823H233.059V314.59Z" fill="#E6E6E6"/>
<path d="M270.564 311.272H286.912V311.505H270.564V311.272Z" fill="#E6E6E6"/>
<path d="M71.295 311.393H120.684V311.626H71.295V311.393Z" fill="#E6E6E6"/>
<path d="M246.108 263.58H426.074C427.484 263.577 428.835 263.015 429.832 262.018C430.828 261.02 431.387 259.668 431.387 258.258V5.27532C431.375 3.87356 430.81 2.53325 429.815 1.54552C428.82 0.557784 427.476 0.00240128 426.074 0H246.108C244.696 0 243.342 0.560701 242.344 1.55876C241.346 2.55681 240.786 3.91046 240.786 5.32192V258.258C240.786 259.669 241.346 261.023 242.344 262.021C243.342 263.019 244.696 263.58 246.108 263.58ZM426.074 0.186408C427.422 0.188877 428.714 0.726116 429.667 1.68021C430.619 2.63429 431.154 3.92727 431.154 5.27532V258.258C431.154 259.606 430.619 260.899 429.667 261.853C428.714 262.807 427.422 263.344 426.074 263.347H246.108C244.759 263.344 243.466 262.807 242.512 261.853C241.558 260.9 241.021 259.607 241.019 258.258V5.27532C241.021 3.92641 241.558 2.63346 242.512 1.67964C243.466 0.725814 244.759 0.188872 246.108 0.186408H426.074Z" fill="#E6E6E6"/>
<path d="M44.4989 263.58H224.475C225.886 263.577 227.238 263.016 228.235 262.018C229.233 261.021 229.794 259.668 229.797 258.258V5.27532C229.782 3.87271 229.215 2.53241 228.219 1.54494C227.223 0.557459 225.878 0.0023751 224.475 0H44.4989C43.0987 0.00485078 41.7568 0.561318 40.7641 1.54879C39.7714 2.53626 39.2079 3.87517 39.1956 5.27532V258.258C39.1956 259.666 39.7537 261.017 40.7478 262.014C41.7418 263.012 43.0907 263.575 44.4989 263.58ZM224.475 0.186408C225.824 0.188872 227.117 0.725814 228.071 1.67964C229.024 2.63346 229.561 3.92641 229.564 5.27532V258.258C229.561 259.607 229.024 260.9 228.071 261.853C227.117 262.807 225.824 263.344 224.475 263.347H44.4989C43.15 263.344 41.857 262.807 40.9032 261.853C39.9494 260.9 39.4124 259.607 39.41 258.258V5.27532C39.4124 3.92641 39.9494 2.63346 40.9032 1.67964C41.857 0.725814 43.15 0.188872 44.4989 0.186408H224.475Z" fill="#E6E6E6"/>
<path d="M72.721 17.3638H199.739V165.371H72.721V17.3638Z" fill="#E0E0E0"/>
<path d="M69.2726 17.3638H198.126V165.371H69.2726V17.3638Z" fill="#F5F5F5"/>
<path d="M72.721 165.371H199.739V173.666H72.721V165.371Z" fill="#E0E0E0"/>
<path d="M53.4837 165.371H174.788V173.666H53.4837V165.371Z" fill="#F5F5F5"/>
<path d="M74.1006 159.089L74.1006 23.6365L193.289 23.6365V159.089H74.1006Z" fill="#FAFAFA"/>
<path d="M176.149 159.089L147.778 23.6455H110.59L138.961 159.089H176.149Z" fill="white"/>
<path d="M132.94 159.089L104.578 23.6455H87.7828L116.145 159.089H132.94Z" fill="white"/>
<path d="M203.364 17.1494V69.8467H189.384C189.384 69.8467 164.34 53.5081 158.627 19.8896C158.491 19.089 158.532 18.2685 158.746 17.4851C158.959 16.7018 159.341 15.9744 159.865 15.3535C160.388 14.7326 161.04 14.2332 161.776 13.8898C162.512 13.5465 163.314 13.3675 164.126 13.3653H199.543C200.043 13.3617 200.538 13.4567 201.001 13.6452C201.464 13.8336 201.885 14.1115 202.24 14.4632C202.595 14.8148 202.877 15.2331 203.07 15.6941C203.263 16.1551 203.363 16.6497 203.364 17.1494Z" fill="#E0E0E0"/>
<path d="M203.364 154.317V74.0967H189.384C189.384 74.0967 181.368 90.2955 173.381 108.918C171.256 113.872 170.395 119.277 170.874 124.646C171.353 130.016 173.158 135.183 176.126 139.683C179.095 144.183 183.134 147.876 187.881 150.43C192.629 152.984 197.936 154.32 203.327 154.317H203.364Z" fill="#E0E0E0"/>
<path d="M189.831 69.8467H202.852C203.624 69.8467 204.25 70.4726 204.25 71.2447V72.6987C204.25 73.4708 203.624 74.0968 202.852 74.0968H189.831C189.059 74.0968 188.433 73.4708 188.433 72.6987V71.2447C188.433 70.4726 189.059 69.8467 189.831 69.8467Z" fill="#F5F5F5"/>
<path d="M65.2925 17.1495V69.8468H79.273C79.273 69.8468 104.326 53.5082 110.03 19.8897C110.165 19.0898 110.125 18.2701 109.912 17.4874C109.698 16.7047 109.317 15.9778 108.795 15.3571C108.273 14.7364 107.622 14.2368 106.887 13.8928C106.152 13.5489 105.352 13.3689 104.54 13.3654H69.1231C68.6226 13.3605 68.1261 13.4547 67.6622 13.6425C67.1982 13.8304 66.776 14.1082 66.42 14.4599C66.0639 14.8117 65.7809 15.2304 65.5874 15.692C65.3939 16.1536 65.2937 16.649 65.2925 17.1495Z" fill="#E0E0E0"/>
<path d="M65.1995 154.336V74.1155H79.1801C79.1801 74.1155 87.1956 90.3049 95.1924 108.936C97.3025 113.893 98.1523 119.294 97.6662 124.659C97.18 130.023 95.3729 135.184 92.4063 139.68C89.4396 144.177 85.4058 147.868 80.6648 150.425C75.9239 152.983 70.6235 154.326 65.2368 154.336H65.1995Z" fill="#E0E0E0"/>
<path d="M78.8536 74.0967H65.8331C65.061 74.0967 64.4351 73.4707 64.4351 72.6986V71.2447C64.4351 70.4725 65.061 69.8466 65.8331 69.8466H78.8536C79.6258 69.8466 80.2517 70.4725 80.2517 71.2447V72.6986C80.2517 73.4707 79.6258 74.0967 78.8536 74.0967Z" fill="#F5F5F5"/>
<path d="M279.763 82.5688H335.713V143.813H279.763V82.5688Z" fill="#E0E0E0"/>
<path d="M271.897 82.5688H332.685V143.813H271.897V82.5688Z" fill="#FAFAFA"/>
<path d="M278.169 137.559V88.8511H326.421V137.559H278.169Z" fill="white"/>
<path d="M315.078 113.196C315.076 110.144 313.862 107.219 311.703 105.062C309.545 102.906 306.619 101.694 303.567 101.694H300.976C297.927 101.697 295.003 102.909 292.846 105.066C290.69 107.222 289.478 110.146 289.475 113.196C289.475 114.706 289.773 116.202 290.351 117.597C290.929 118.992 291.776 120.26 292.844 121.328C293.912 122.396 295.18 123.243 296.575 123.821C297.97 124.399 299.466 124.697 300.976 124.697H303.567C305.079 124.698 306.575 124.402 307.972 123.824C309.368 123.247 310.637 122.4 311.706 121.332C312.775 120.263 313.623 118.995 314.202 117.599C314.78 116.203 315.078 114.707 315.078 113.196Z" fill="#F5F5F5"/>
<path d="M381.029 97.1833C388.816 97.1833 396.283 94.0902 401.789 88.5842C407.295 83.0783 410.388 75.6107 410.388 67.8242C410.388 60.0377 407.295 52.5701 401.789 47.0642C396.283 41.5583 388.816 38.4651 381.029 38.4651H375.726V97.1833H381.029Z" fill="#E0E0E0"/>
<path d="M375.726 97.1834C359.521 97.1834 346.385 84.0472 346.385 67.8429C346.385 51.6386 359.521 38.5024 375.726 38.5024C391.93 38.5024 405.066 51.6386 405.066 67.8429C405.066 84.0472 391.93 97.1834 375.726 97.1834Z" fill="#FAFAFA"/>
<path d="M375.726 89.9694C363.506 89.9694 353.599 80.063 353.599 67.8428C353.599 55.6227 363.506 45.7163 375.726 45.7163C387.946 45.7163 397.852 55.6227 397.852 67.8428C397.852 80.063 387.946 89.9694 375.726 89.9694Z" fill="white"/>
<path d="M366.61 76.1194L377.478 68.542L374.029 51.7747L370.954 52.4084L373.983 67.1439L364.812 73.5377L366.61 76.1194Z" fill="#E0E0E0"/>
<path d="M138.606 200.388H178.6V308.448H138.606V200.388Z" fill="#E0E0E0"/>
<path d="M149.288 308.448H138.607V290.553H160.481L149.288 308.448Z" fill="#FAFAFA"/>
<path d="M378.373 200.388H418.366V308.448H378.373V200.388Z" fill="#E0E0E0"/>
<path d="M138.597 200.388H387.693V302.287H138.597V200.388Z" fill="#FAFAFA"/>
<path d="M377.012 308.448H387.693V290.553H365.818L377.012 308.448Z" fill="#FAFAFA"/>
<path d="M146.883 209.149H379.407V246.654H146.883V209.149Z" fill="#F0F0F0"/>
<path d="M146.883 255.723H379.407V293.228H146.883V255.723Z" fill="#F0F0F0"/>
<path d="M180.977 209.149H379.407V246.654H180.977V209.149Z" fill="#E0E0E0"/>
<path d="M318.303 214.21H330.373C330.373 214.21 328.276 221.452 328.276 225.711C328.276 229.97 337.456 246.663 324.333 246.663C311.21 246.663 320.4 229.97 320.4 225.711C320.4 221.452 318.303 214.21 318.303 214.21Z" fill="#FAFAFA"/>
<path d="M365.818 226.792V233.382C365.818 240.689 358.754 246.663 350.123 246.663H342.34C333.71 246.663 326.645 240.689 326.645 233.382V226.792H365.818Z" fill="#F0F0F0"/>
<path d="M180.977 255.723H379.407V293.228H180.977V255.723Z" fill="#E0E0E0"/>
<path d="M267.964 292.557H249.379V261.604H267.964V292.557Z" fill="white"/>
<path d="M252.277 293.032H251.01V262.079H252.277V293.032Z" fill="#E6E6E6"/>
<path d="M250.917 293.265H247.673C247.426 293.265 247.226 293.065 247.226 292.818V262.284C247.226 262.037 247.426 261.837 247.673 261.837H250.917C251.164 261.837 251.364 262.037 251.364 262.284V292.818C251.364 293.065 251.164 293.265 250.917 293.265Z" fill="#EBEBEB"/>
<path d="M251.364 276.358H247.226V269.013H251.364V276.358Z" fill="white"/>
<path d="M251.364 283.162H247.226V278.632H251.364V283.162Z" fill="white"/>
<path d="M268.914 293.265H252.166C251.919 293.265 251.718 293.065 251.718 292.818V262.284C251.718 262.037 251.919 261.837 252.166 261.837H268.914C269.161 261.837 269.362 262.037 269.362 262.284V292.818C269.362 293.065 269.161 293.265 268.914 293.265Z" fill="#EBEBEB"/>
<path d="M277.033 292.473H256.528V258.323H277.033V292.473Z" fill="white"/>
<path d="M259.706 293.013H258.317V258.864H259.706V293.013Z" fill="#E6E6E6"/>
<path d="M258.215 293.274H254.636C254.363 293.274 254.142 293.053 254.142 292.78V259.096C254.142 258.824 254.363 258.602 254.636 258.602H258.215C258.487 258.602 258.709 258.824 258.709 259.096V292.78C258.709 293.053 258.487 293.274 258.215 293.274Z" fill="#F0F0F0"/>
<path d="M258.709 270.831H254.142V269.647H258.709V270.831Z" fill="white"/>
<path d="M258.709 274.251H254.142V273.068H258.709V274.251Z" fill="white"/>
<path d="M258.709 277.672H254.142V276.488H258.709V277.672Z" fill="white"/>
<path d="M278.067 293.274H259.594C259.321 293.274 259.1 293.053 259.1 292.78V259.096C259.1 258.824 259.321 258.602 259.594 258.602H278.067C278.34 258.602 278.561 258.824 278.561 259.096V292.78C278.561 293.053 278.34 293.274 278.067 293.274Z" fill="#F0F0F0"/>
<path d="M302.291 281.372C302.289 282.412 302.596 283.43 303.172 284.295C303.749 285.161 304.569 285.836 305.529 286.236C306.49 286.635 307.547 286.74 308.567 286.538C309.588 286.337 310.525 285.837 311.261 285.102C311.997 284.367 312.499 283.431 312.703 282.411C312.906 281.391 312.803 280.333 312.405 279.372C312.007 278.411 311.334 277.59 310.469 277.012C309.604 276.434 308.588 276.125 307.548 276.125C306.155 276.125 304.819 276.678 303.834 277.661C302.848 278.645 302.293 279.98 302.291 281.372Z" fill="#FAFAFA"/>
<path d="M311.248 283.879C311.248 284.692 311.489 285.487 311.94 286.163C312.392 286.839 313.034 287.366 313.785 287.677C314.536 287.988 315.363 288.069 316.16 287.911C316.957 287.752 317.69 287.361 318.264 286.786C318.839 286.211 319.231 285.478 319.389 284.681C319.548 283.884 319.466 283.057 319.155 282.306C318.844 281.555 318.317 280.913 317.642 280.462C316.966 280.01 316.171 279.769 315.358 279.769C314.269 279.772 313.225 280.205 312.454 280.976C311.684 281.746 311.25 282.79 311.248 283.879Z" fill="#FAFAFA"/>
<path d="M293.296 283.879C293.296 284.919 293.604 285.935 294.182 286.8C294.76 287.664 295.581 288.338 296.541 288.736C297.502 289.134 298.559 289.238 299.578 289.035C300.598 288.832 301.535 288.331 302.27 287.596C303.005 286.861 303.506 285.924 303.709 284.905C303.911 283.885 303.807 282.828 303.409 281.868C303.012 280.907 302.338 280.086 301.473 279.508C300.609 278.931 299.593 278.623 298.553 278.623C297.159 278.625 295.824 279.18 294.839 280.165C293.853 281.15 293.299 282.486 293.296 283.879Z" fill="#FAFAFA"/>
<path d="M284.684 282.341C284.684 283.381 284.993 284.397 285.57 285.262C286.148 286.126 286.969 286.8 287.929 287.198C288.89 287.596 289.947 287.7 290.967 287.497C291.986 287.294 292.923 286.794 293.658 286.058C294.393 285.323 294.894 284.387 295.097 283.367C295.3 282.347 295.195 281.29 294.798 280.33C294.4 279.369 293.726 278.548 292.862 277.971C291.997 277.393 290.981 277.085 289.941 277.085C288.547 277.085 287.21 277.639 286.224 278.624C285.238 279.61 284.684 280.947 284.684 282.341Z" fill="#FAFAFA"/>
<path d="M329.823 283.022C329.823 283.022 329.106 293.274 301.452 293.274C273.799 293.274 273.081 283.022 273.081 283.022H329.823Z" fill="#F5F5F5"/>
<path d="M252.278 236.411C252.278 236.411 251.131 246.663 207.307 246.663C163.483 246.663 162.346 236.411 162.346 236.411H252.278Z" fill="white"/>
<path d="M233.991 347.239C134.186 347.239 53.2786 342.516 53.2786 336.689C53.2786 330.862 134.186 326.138 233.991 326.138C333.796 326.138 414.703 330.862 414.703 336.689C414.703 342.516 333.796 347.239 233.991 347.239Z" fill="#F5F5F5"/>
<path d="M330.064 196.963C310.351 177.25 310.351 145.288 330.064 125.575C349.777 105.861 381.739 105.861 401.452 125.575C421.165 145.288 421.165 177.25 401.452 196.963C381.739 216.676 349.777 216.676 330.064 196.963Z" fill="#407BFF"/>
<path opacity="0.4" d="M330.064 196.963C310.351 177.25 310.351 145.288 330.064 125.575C349.777 105.861 381.739 105.861 401.452 125.575C421.165 145.288 421.165 177.25 401.452 196.963C381.739 216.676 349.777 216.676 330.064 196.963Z" fill="black"/>
<path opacity="0.2" d="M323.968 168.397C320.032 145.319 335.549 123.42 358.626 119.484C381.704 115.547 403.603 131.064 407.539 154.142C411.476 177.219 395.959 199.118 372.881 203.055C349.804 206.991 327.905 191.474 323.968 168.397Z" fill="black"/>
<path d="M321.943 165.328C320.37 142.854 337.313 123.36 359.787 121.787C382.261 120.214 401.755 137.157 403.328 159.631C404.901 182.105 387.958 201.599 365.484 203.172C343.01 204.746 323.516 187.802 321.943 165.328Z" fill="#407BFF"/>
<path opacity="0.4" d="M321.943 165.328C320.37 142.854 337.313 123.36 359.787 121.787C382.261 120.214 401.755 137.157 403.328 159.631C404.901 182.105 387.958 201.599 365.484 203.172C343.01 204.746 323.516 187.802 321.943 165.328Z" fill="black"/>
<path d="M348.995 157.383L346.339 168.894C346.226 169.334 346.206 169.792 346.28 170.239C346.353 170.687 346.52 171.114 346.767 171.494C347.008 171.883 347.325 172.219 347.698 172.483C348.071 172.747 348.493 172.934 348.939 173.032L359.061 175.372L357.197 183.471C357.087 183.909 357.07 184.365 357.147 184.809C357.225 185.254 357.394 185.678 357.644 186.053C357.885 186.435 358.202 186.763 358.576 187.016C358.95 187.27 359.372 187.443 359.816 187.525C360.261 187.637 360.723 187.658 361.176 187.588C361.629 187.517 362.064 187.357 362.454 187.115C362.842 186.887 363.179 186.58 363.442 186.214C363.705 185.848 363.889 185.431 363.982 184.99L365.846 176.798L375.884 179.118C376.317 179.223 376.766 179.239 377.205 179.165C377.644 179.091 378.063 178.93 378.438 178.69C378.827 178.461 379.165 178.154 379.43 177.789C379.695 177.423 379.881 177.006 379.976 176.565C380.082 176.129 380.099 175.677 380.025 175.235C379.951 174.792 379.789 174.37 379.547 173.992C379.317 173.606 379.009 173.272 378.643 173.011C378.278 172.749 377.862 172.566 377.422 172.473L353.935 167.058L355.035 162.277L378.457 167.673C378.89 167.784 379.342 167.805 379.784 167.736C380.226 167.667 380.65 167.51 381.029 167.272C381.418 167.039 381.754 166.727 382.016 166.356C382.277 165.985 382.459 165.564 382.548 165.119L385.195 153.655C385.399 152.774 385.244 151.848 384.766 151.081C384.287 150.313 383.523 149.768 382.642 149.564L372.65 147.262L374.514 139.153C374.622 138.724 374.643 138.278 374.576 137.841C374.509 137.404 374.355 136.985 374.123 136.608C373.877 136.201 373.547 135.85 373.155 135.58C372.762 135.31 372.317 135.127 371.849 135.043C371.418 134.938 370.97 134.922 370.532 134.995C370.095 135.069 369.677 135.231 369.304 135.471C368.921 135.707 368.59 136.017 368.331 136.384C368.071 136.751 367.889 137.166 367.794 137.606L365.93 145.705L355.678 143.356C355.234 143.249 354.774 143.232 354.323 143.308C353.873 143.383 353.443 143.548 353.059 143.794C352.67 144.018 352.332 144.32 352.065 144.681C351.799 145.042 351.61 145.454 351.512 145.891C351.315 146.793 351.479 147.735 351.969 148.517C352.458 149.299 353.234 149.859 354.131 150.076L377.618 155.491L376.593 160.245L353.189 154.848C352.746 154.741 352.285 154.724 351.835 154.8C351.385 154.875 350.955 155.04 350.57 155.286C350.175 155.506 349.83 155.806 349.559 156.167C349.288 156.528 349.095 156.943 348.995 157.383Z" fill="#407BFF"/>
<g opacity="0.7">
<path opacity="0.7" d="M348.995 157.383L346.339 168.894C346.226 169.334 346.206 169.792 346.28 170.239C346.353 170.687 346.52 171.114 346.767 171.494C347.008 171.883 347.325 172.219 347.698 172.483C348.071 172.747 348.493 172.934 348.939 173.032L359.061 175.372L357.197 183.471C357.087 183.909 357.07 184.365 357.147 184.809C357.225 185.254 357.394 185.678 357.644 186.053C357.885 186.435 358.202 186.763 358.576 187.016C358.95 187.27 359.372 187.443 359.816 187.525C360.261 187.637 360.723 187.658 361.176 187.588C361.629 187.517 362.064 187.357 362.454 187.115C362.842 186.887 363.179 186.58 363.442 186.214C363.705 185.848 363.889 185.431 363.982 184.99L365.846 176.798L375.884 179.118C376.317 179.223 376.766 179.239 377.205 179.165C377.644 179.091 378.063 178.93 378.438 178.69C378.827 178.461 379.165 178.154 379.43 177.789C379.695 177.423 379.881 177.006 379.976 176.565C380.082 176.129 380.099 175.677 380.025 175.235C379.951 174.792 379.789 174.37 379.547 173.992C379.317 173.606 379.009 173.272 378.643 173.011C378.278 172.749 377.862 172.566 377.422 172.473L353.935 167.058L355.035 162.277L378.457 167.673C378.89 167.784 379.342 167.805 379.784 167.736C380.226 167.667 380.65 167.51 381.029 167.272C381.418 167.039 381.754 166.727 382.016 166.356C382.277 165.985 382.459 165.564 382.548 165.119L385.195 153.655C385.399 152.774 385.244 151.848 384.766 151.081C384.287 150.313 383.523 149.768 382.642 149.564L372.65 147.262L374.514 139.153C374.622 138.724 374.643 138.278 374.576 137.841C374.509 137.404 374.355 136.985 374.123 136.608C373.877 136.201 373.547 135.85 373.155 135.58C372.762 135.31 372.317 135.127 371.849 135.043C371.418 134.938 370.97 134.922 370.532 134.995C370.095 135.069 369.677 135.231 369.304 135.471C368.921 135.707 368.59 136.017 368.331 136.384C368.071 136.751 367.889 137.166 367.794 137.606L365.93 145.705L355.678 143.356C355.234 143.249 354.774 143.232 354.323 143.308C353.873 143.383 353.443 143.548 353.059 143.794C352.67 144.018 352.332 144.32 352.065 144.681C351.799 145.042 351.61 145.454 351.512 145.891C351.315 146.793 351.479 147.735 351.969 148.517C352.458 149.299 353.234 149.859 354.131 150.076L377.618 155.491L376.593 160.245L353.189 154.848C352.746 154.741 352.285 154.724 351.835 154.8C351.385 154.875 350.955 155.04 350.57 155.286C350.175 155.506 349.83 155.806 349.559 156.167C349.288 156.528 349.095 156.943 348.995 157.383Z" fill="white"/>
</g>
<path d="M258.039 121.125C245.48 106.264 247.347 84.035 262.208 71.476C277.07 58.917 299.299 60.7836 311.858 75.6452C324.417 90.5068 322.55 112.736 307.688 125.295C292.827 137.854 270.598 135.987 258.039 121.125Z" fill="#407BFF"/>
<path opacity="0.4" d="M258.039 121.125C245.48 106.264 247.347 84.035 262.208 71.476C277.07 58.917 299.299 60.7836 311.858 75.6452C324.417 90.5068 322.55 112.736 307.688 125.295C292.827 137.854 270.598 135.987 258.039 121.125Z" fill="black"/>
<path opacity="0.2" d="M262.145 117.207C251.735 104.615 253.505 85.968 266.097 75.5581C278.689 65.1481 297.336 66.9174 307.746 79.5098C318.156 92.1022 316.387 110.749 303.795 121.159C291.202 131.569 272.555 129.8 262.145 117.207Z" fill="black"/>
<path d="M261.253 117.517C251.728 105.055 254.11 87.2321 266.571 77.708C279.033 68.1838 296.856 70.5651 306.38 83.0267C315.904 95.4882 313.523 113.311 301.061 122.835C288.6 132.359 270.777 129.978 261.253 117.517Z" fill="#407BFF"/>
<path opacity="0.4" d="M261.253 117.517C251.728 105.055 254.11 87.2321 266.571 77.708C279.033 68.1838 296.856 70.5651 306.38 83.0267C315.904 95.4882 313.523 113.311 301.061 122.835C288.6 132.359 270.777 129.978 261.253 117.517Z" fill="black"/>
<path d="M273.304 101.275L275.308 109.272C275.381 109.576 275.516 109.861 275.706 110.11C275.895 110.359 276.134 110.565 276.408 110.716C276.685 110.885 276.992 110.995 277.313 111.042C277.633 111.088 277.959 111.069 278.272 110.987L285.253 109.225L286.67 114.817C286.742 115.123 286.877 115.41 287.066 115.66C287.256 115.911 287.495 116.119 287.77 116.271C288.034 116.435 288.329 116.544 288.637 116.591C288.944 116.637 289.258 116.62 289.559 116.542C289.869 116.469 290.162 116.335 290.419 116.148C290.677 115.96 290.895 115.724 291.06 115.451C291.228 115.185 291.34 114.887 291.388 114.576C291.436 114.265 291.419 113.947 291.339 113.643L289.913 107.958L296.904 106.252C297.206 106.18 297.491 106.046 297.741 105.86C297.991 105.675 298.201 105.44 298.358 105.171C298.526 104.907 298.638 104.61 298.686 104.301C298.734 103.991 298.718 103.675 298.637 103.372C298.567 103.066 298.436 102.777 298.25 102.523C298.064 102.27 297.827 102.058 297.556 101.899C297.288 101.736 296.989 101.628 296.679 101.583C296.368 101.539 296.051 101.557 295.748 101.638L279.437 105.73L278.598 102.412L294.862 98.3297C295.167 98.2615 295.454 98.1311 295.706 97.9467C295.958 97.7622 296.169 97.5277 296.326 97.2579C296.495 96.992 296.605 96.6934 296.65 96.3818C296.695 96.0701 296.673 95.7524 296.587 95.4497L294.592 87.4808C294.517 87.1771 294.382 86.8912 294.196 86.6398C294.01 86.3884 293.776 86.1764 293.507 86.016C293.238 85.8557 292.941 85.7502 292.631 85.7057C292.321 85.6611 292.006 85.6784 291.703 85.7565L284.787 87.4901L283.37 81.8979C283.302 81.5822 283.169 81.2842 282.979 81.0225C282.79 80.7609 282.548 80.5413 282.27 80.3775C281.992 80.2138 281.682 80.1095 281.362 80.0712C281.041 80.0329 280.716 80.0614 280.407 80.155C280.106 80.2246 279.823 80.3558 279.576 80.5403C279.329 80.7248 279.123 80.9586 278.971 81.2268C278.806 81.4926 278.697 81.7892 278.651 82.0984C278.604 82.4077 278.621 82.7232 278.701 83.0257L280.118 88.6179L273.034 90.3981C272.723 90.4723 272.431 90.6089 272.175 90.7995C271.918 90.9902 271.703 91.2309 271.543 91.5072C271.373 91.769 271.259 92.063 271.208 92.3709C271.156 92.6788 271.169 92.9939 271.245 93.2967C271.322 93.6072 271.461 93.899 271.653 94.1551C271.846 94.4112 272.087 94.6263 272.363 94.788C272.638 94.9592 272.946 95.0724 273.266 95.1205C273.587 95.1685 273.914 95.1505 274.227 95.0676L290.547 90.9759L291.367 94.2753L275.113 98.3483C274.802 98.4225 274.509 98.5591 274.253 98.7498C273.997 98.9404 273.782 99.1812 273.621 99.4575C273.442 99.7202 273.321 100.018 273.266 100.332C273.211 100.645 273.224 100.967 273.304 101.275Z" fill="#407BFF"/>
<g opacity="0.7">
<path opacity="0.7" d="M273.304 101.275L275.308 109.272C275.381 109.576 275.516 109.861 275.706 110.11C275.895 110.359 276.134 110.565 276.408 110.716C276.685 110.885 276.992 110.995 277.313 111.042C277.633 111.088 277.959 111.069 278.272 110.987L285.253 109.225L286.67 114.817C286.742 115.123 286.877 115.41 287.066 115.66C287.256 115.911 287.495 116.119 287.77 116.271C288.034 116.435 288.329 116.544 288.637 116.591C288.944 116.637 289.258 116.62 289.559 116.542C289.869 116.469 290.162 116.335 290.419 116.148C290.677 115.96 290.895 115.724 291.06 115.451C291.228 115.185 291.34 114.887 291.388 114.576C291.436 114.265 291.419 113.947 291.339 113.643L289.913 107.958L296.904 106.252C297.206 106.18 297.491 106.046 297.741 105.86C297.991 105.675 298.201 105.44 298.358 105.171C298.526 104.907 298.638 104.61 298.686 104.301C298.734 103.991 298.718 103.675 298.637 103.372C298.567 103.066 298.436 102.777 298.25 102.523C298.064 102.27 297.827 102.058 297.556 101.899C297.288 101.736 296.989 101.628 296.679 101.583C296.368 101.539 296.051 101.557 295.748 101.638L279.437 105.73L278.598 102.412L294.862 98.3297C295.167 98.2615 295.454 98.1311 295.706 97.9467C295.958 97.7622 296.169 97.5277 296.326 97.2579C296.495 96.992 296.605 96.6934 296.65 96.3818C296.695 96.0701 296.673 95.7524 296.587 95.4497L294.592 87.4808C294.517 87.1771 294.382 86.8912 294.196 86.6398C294.01 86.3884 293.776 86.1764 293.507 86.016C293.238 85.8557 292.941 85.7502 292.631 85.7057C292.321 85.6611 292.006 85.6784 291.703 85.7565L284.787 87.4901L283.37 81.8979C283.302 81.5822 283.169 81.2842 282.979 81.0225C282.79 80.7609 282.548 80.5413 282.27 80.3775C281.992 80.2138 281.682 80.1095 281.362 80.0712C281.041 80.0329 280.716 80.0614 280.407 80.155C280.106 80.2246 279.823 80.3558 279.576 80.5403C279.329 80.7248 279.123 80.9586 278.971 81.2268C278.806 81.4926 278.697 81.7892 278.651 82.0984C278.604 82.4077 278.621 82.7232 278.701 83.0257L280.118 88.6179L273.034 90.3981C272.723 90.4723 272.431 90.6089 272.175 90.7995C271.918 90.9902 271.703 91.2309 271.543 91.5072C271.373 91.769 271.259 92.063 271.208 92.3709C271.156 92.6788 271.169 92.9939 271.245 93.2967C271.322 93.6072 271.461 93.899 271.653 94.1551C271.846 94.4112 272.087 94.6263 272.363 94.788C272.638 94.9592 272.946 95.0724 273.266 95.1205C273.587 95.1685 273.914 95.1505 274.227 95.0676L290.547 90.9759L291.367 94.2753L275.113 98.3483C274.802 98.4225 274.509 98.5591 274.253 98.7498C273.997 98.9404 273.782 99.1812 273.621 99.4575C273.442 99.7202 273.321 100.018 273.266 100.332C273.211 100.645 273.224 100.967 273.304 101.275Z" fill="white"/>
</g>
<path d="M370.758 311.272H371.69V321.794H370.758V311.272Z" fill="#407BFF"/>
<path opacity="0.1" d="M370.758 311.272H371.69V321.794H370.758V311.272Z" fill="black"/>
<path d="M113.572 165.38H354.401C362.148 165.38 368.428 171.661 368.428 179.408V320.378C368.428 328.125 362.148 334.405 354.401 334.405H113.572C105.825 334.405 99.5448 328.125 99.5448 320.378V179.408C99.5448 171.661 105.825 165.38 113.572 165.38Z" fill="#5181EF"/>
<path opacity="0.2" d="M143.071 224.238C133.461 224.238 125.67 216.448 125.67 206.837C125.67 197.227 133.461 189.436 143.071 189.436C152.681 189.436 160.472 197.227 160.472 206.837C160.472 216.448 152.681 224.238 143.071 224.238Z" fill="black"/>
<path d="M165.533 224.238C155.923 224.238 148.132 216.448 148.132 206.837C148.132 197.227 155.923 189.436 165.533 189.436C175.143 189.436 182.934 197.227 182.934 206.837C182.934 216.448 175.143 224.238 165.533 224.238Z" fill="#407BFF"/>
<path d="M294.816 224.239H336.263C339.599 224.239 342.303 226.943 342.303 230.278V257.372C342.303 260.708 339.599 263.412 336.263 263.412H294.816C291.48 263.412 288.776 260.708 288.776 257.372V230.278C288.776 226.943 291.48 224.239 294.816 224.239Z" fill="#407BFF"/>
<path opacity="0.3" d="M294.816 224.239H336.263C339.599 224.239 342.303 226.943 342.303 230.278V257.372C342.303 260.708 339.599 263.412 336.263 263.412H294.816C291.48 263.412 288.776 260.708 288.776 257.372V230.278C288.776 226.943 291.48 224.239 294.816 224.239Z" fill="white"/>
<path d="M266.137 185.167H338.025C340.387 185.167 342.303 187.081 342.303 189.441C342.303 191.801 340.387 193.714 338.025 193.714H266.137C263.774 193.714 261.859 191.801 261.859 189.441C261.859 187.081 263.774 185.167 266.137 185.167Z" fill="#407BFF"/>
<path opacity="0.3" d="M266.137 185.167H338.025C340.387 185.167 342.303 187.081 342.303 189.441C342.303 191.801 340.387 193.714 338.025 193.714H266.137C263.774 193.714 261.859 191.801 261.859 189.441C261.859 187.081 263.774 185.167 266.137 185.167Z" fill="white"/>
<path d="M303.698 282.854H336.03C339.494 282.854 342.303 285.662 342.303 289.127V294.989C342.303 298.453 339.494 301.262 336.03 301.262H303.698C300.234 301.262 297.425 298.453 297.425 294.989V289.127C297.425 285.662 300.234 282.854 303.698 282.854Z" fill="#407BFF"/>
<path opacity="0.3" d="M303.698 282.854H336.03C339.494 282.854 342.303 285.662 342.303 289.127V294.989C342.303 298.453 339.494 301.262 336.03 301.262H303.698C300.234 301.262 297.425 298.453 297.425 294.989V289.127C297.425 285.662 300.234 282.854 303.698 282.854Z" fill="white"/>
<path d="M246.452 282.854H278.785C282.249 282.854 285.057 285.662 285.057 289.127V294.989C285.057 298.453 282.249 301.262 278.785 301.262H246.452C242.988 301.262 240.18 298.453 240.18 294.989V289.127C240.18 285.662 242.988 282.854 246.452 282.854Z" fill="#407BFF"/>
<path opacity="0.3" d="M246.452 282.854H278.785C282.249 282.854 285.057 285.662 285.057 289.127V294.989C285.057 298.453 282.249 301.262 278.785 301.262H246.452C242.988 301.262 240.18 298.453 240.18 294.989V289.127C240.18 285.662 242.988 282.854 246.452 282.854Z" fill="white"/>
<path d="M189.197 282.854H221.53C224.994 282.854 227.802 285.662 227.802 289.127V294.989C227.802 298.453 224.994 301.262 221.53 301.262H189.197C185.733 301.262 182.925 298.453 182.925 294.989V289.127C182.925 285.662 185.733 282.854 189.197 282.854Z" fill="#407BFF"/>
<path opacity="0.3" d="M189.197 282.854H221.53C224.994 282.854 227.802 285.662 227.802 289.127V294.989C227.802 298.453 224.994 301.262 221.53 301.262H189.197C185.733 301.262 182.925 298.453 182.925 294.989V289.127C182.925 285.662 185.733 282.854 189.197 282.854Z" fill="white"/>
<path d="M131.952 282.854H164.284C167.748 282.854 170.557 285.662 170.557 289.127V294.989C170.557 298.453 167.748 301.262 164.284 301.262H131.952C128.487 301.262 125.679 298.453 125.679 294.989V289.127C125.679 285.662 128.487 282.854 131.952 282.854Z" fill="#407BFF"/>
<path opacity="0.3" d="M131.952 282.854H164.284C167.748 282.854 170.557 285.662 170.557 289.127V294.989C170.557 298.453 167.748 301.262 164.284 301.262H131.952C128.487 301.262 125.679 298.453 125.679 294.989V289.127C125.679 285.662 128.487 282.854 131.952 282.854Z" fill="white"/>
<path d="M193.914 104.22C196.123 110.456 198.574 116.486 201.174 122.516C203.806 128.648 206.826 134.607 210.215 140.355C210.672 141.092 211.147 141.828 211.641 142.564L212.004 143.114L212.498 143.795C212.834 144.223 213.151 144.596 213.43 144.96C214.605 146.269 215.849 147.513 217.159 148.688C219.647 150.99 222.182 153.078 224.745 155.137C229.89 159.22 235.147 163.041 240.59 166.667L243.843 162.631L230.142 149.126C227.877 146.88 225.631 144.615 223.534 142.35C222.499 141.222 221.493 140.066 220.663 139.004C220.458 138.743 220.281 138.482 220.122 138.258L219.927 137.941L219.656 137.457C219.293 136.814 218.911 136.189 218.557 135.527C215.705 130.168 213.188 124.343 210.765 118.434C208.342 112.525 206.011 106.569 203.775 100.66L193.914 104.22Z" fill="#E4897B"/>
<path d="M191.295 99.7278C189.179 105.917 201.612 124.119 201.612 124.119L213.486 117.511C211.463 111.831 209.072 106.29 206.328 100.921C202.171 93.0544 193.615 92.9333 191.295 99.7278Z" fill="#407BFF"/>
<path opacity="0.7" d="M191.295 99.7278C189.179 105.917 201.612 124.119 201.612 124.119L213.486 117.511C211.463 111.831 209.072 106.29 206.328 100.921C202.171 93.0544 193.615 92.9333 191.295 99.7278Z" fill="white"/>
<path opacity="0.31" d="M191.118 100.501C193.783 99.2245 196.85 100.296 200.084 105.404C203.318 110.511 206.067 119.04 206.366 121.472L201.603 124.11C201.603 124.11 190.13 107.296 191.118 100.501Z" fill="#407BFF"/>
<path d="M199.338 94.9932C199.338 94.9932 208.211 115.861 201.817 154.718H164.862C164.405 149.042 167.015 121.37 160.612 94.639C164.68 93.847 168.796 93.324 172.934 93.0732C178.164 92.7748 183.408 92.7748 188.638 93.0732C192.249 93.4398 195.826 94.0817 199.338 94.9932Z" fill="#407BFF"/>
<path opacity="0.7" d="M199.338 94.9932C199.338 94.9932 208.211 115.861 201.817 154.718H164.862C164.405 149.042 167.015 121.37 160.612 94.639C164.68 93.847 168.796 93.324 172.934 93.0732C178.164 92.7748 183.408 92.7748 188.638 93.0732C192.249 93.4398 195.826 94.0817 199.338 94.9932Z" fill="white"/>
<path d="M151.776 320.275L157.247 325.178L167.677 314.32L162.196 309.417L151.776 320.275Z" fill="#E4897B"/>
<path d="M170.538 330.472H177.445L178.339 314.478H171.433L170.538 330.472Z" fill="#E4897B"/>
<path d="M167.667 314.32L162.299 319.921L156.819 315.009L162.187 309.417L167.667 314.32Z" fill="#CE6F64"/>
<path d="M171.433 314.478H178.339L177.873 322.727H170.967L171.433 314.478Z" fill="#CE6F64"/>
<path d="M201.817 154.718C201.817 154.718 209.097 205.104 211.576 232.524C213.57 254.53 165.99 320.136 165.99 320.136L156.791 311.477C156.791 311.477 191.537 252.656 188.862 228.162C186.271 204.442 177.491 154.69 177.491 154.69L201.817 154.718Z" fill="#305CBF"/>
<path opacity="0.2" d="M188.862 228.19C187.529 215.971 184.547 196.827 181.984 181.15C183.326 178.522 187.091 173.2 187.091 173.2C190.465 184.86 197.8 228.815 187.334 288.176C176.429 305.754 165.99 320.164 165.99 320.164L164.564 297.496C174.639 278.539 190.717 245.125 188.862 228.19Z" fill="black"/>
<path d="M188.676 154.718C188.676 154.718 189.328 207.518 188.21 227.305C186.989 248.965 180.837 320.742 180.837 320.742H168.18C168.18 320.742 168.562 250.718 167.817 229.281C166.987 205.98 164.843 154.718 164.843 154.718H188.676Z" fill="#305CBF"/>
<path d="M177.808 329.68H170.044C169.915 329.675 169.788 329.721 169.693 329.808C169.597 329.895 169.539 330.016 169.532 330.146L169.149 336.288C169.148 336.448 169.179 336.607 169.239 336.756C169.299 336.905 169.388 337.04 169.5 337.154C169.613 337.268 169.747 337.359 169.895 337.422C170.042 337.484 170.201 337.517 170.361 337.518C173.064 337.472 174.36 337.313 177.771 337.313C179.868 337.313 188.797 337.537 191.695 337.537C194.594 337.537 194.492 334.666 193.289 334.405C187.781 333.24 180.949 331.609 178.992 330.099C178.654 329.833 178.238 329.685 177.808 329.68Z" fill="#263238"/>
<path d="M158.757 323.211L152.103 318.728C151.994 318.642 151.859 318.595 151.72 318.595C151.582 318.595 151.447 318.642 151.338 318.728L146.249 323.864C146.15 323.977 146.077 324.11 146.035 324.254C145.993 324.399 145.983 324.55 146.006 324.699C146.029 324.847 146.085 324.989 146.169 325.114C146.253 325.238 146.363 325.343 146.492 325.42C150.742 328.692 153.808 331.162 156.232 333.883C159.028 337.061 160.538 337.518 167.062 337.518C170.082 337.518 171.787 334.974 170.557 334.582C159.689 331.143 162.597 329.642 159.95 324.6C159.674 324.045 159.264 323.568 158.757 323.211Z" fill="#263238"/>
<path d="M242.277 161.764L249.482 162.016L247.972 167.664C247.972 167.664 240.441 168.335 239.77 166.061L242.277 161.764Z" fill="#E4897B"/>
<path d="M257.255 165.38L252.203 168.326L247.972 167.664L249.482 162.016L257.255 165.38Z" fill="#E4897B"/>
<path opacity="0.31" d="M168.87 101.238C169.634 105.637 168.618 116.15 164.843 128.323C164.548 117.894 163.335 107.511 161.218 97.2953V97.2394C163.641 96.9971 168.133 97.1089 168.87 101.238Z" fill="#407BFF"/>
<path d="M173.875 75.3833C175.04 80.4349 176.354 89.6994 172.943 93.092C172.943 93.092 174.416 97.2768 183.81 97.2768C194.137 97.2768 188.648 93.092 188.648 93.092C182.962 91.7498 182.962 87.565 183.81 83.6411L173.875 75.3833Z" fill="#E4897B"/>
<path d="M184.072 97.2581L186.868 100.231L185.498 103.102L183.27 103.204L181.369 100.464L184.072 97.2581Z" fill="#407BFF"/>
<path d="M177.92 78.7476L183.801 83.6128C183.59 84.5316 183.459 85.4672 183.41 86.4089C181.248 86.1013 178.209 83.7339 177.901 81.4784C177.737 80.575 177.743 79.6487 177.92 78.7476Z" fill="#CE6F64"/>
<path d="M186.131 58.2523C189.664 59.4546 192.488 68.8216 188.368 71.3008C184.248 73.78 179.42 55.9688 186.131 58.2523Z" fill="#263238"/>
<path d="M171.666 70.0891C173.772 76.6134 174.667 80.5559 178.917 83.2308C180.288 84.1121 181.874 84.6016 183.503 84.6466C185.132 84.6915 186.743 84.2901 188.161 83.4859C189.578 82.6816 190.749 81.505 191.546 80.0834C192.343 78.6618 192.736 77.0493 192.683 75.4204C192.599 69.1478 189.169 59.4919 181.946 58.2802C180.389 57.9797 178.781 58.0935 177.282 58.6101C175.783 59.1267 174.446 60.0281 173.405 61.2239C172.364 62.4198 171.655 63.8682 171.35 65.424C171.045 66.9799 171.154 68.5886 171.666 70.0891Z" fill="#E4897B"/>
<path d="M166.447 59.1843C168.553 64.2732 163.651 60.0231 164.918 66.0627C165.738 69.9959 172.841 79.4188 175.581 78.5613C178.321 77.7038 178.293 71.0211 174.798 66.2957C172.785 63.5835 177.137 60.5078 186.914 60.834C196.691 61.1602 202.6 55.6612 189.608 51.6255C189.608 51.6255 194.399 54.4216 191.556 55.3536C187.529 56.8542 162.225 48.9878 166.447 59.1843Z" fill="#263238"/>
<path d="M168.311 61.5142C168.413 61.5142 166.12 60.9456 164.899 56.854C164.899 56.9192 165.3 62.9495 168.311 61.5142Z" fill="#263238"/>
<path d="M186.606 52.5295C192.618 54.3936 190.13 56.4907 187.641 57.0126L181.937 54.7757C190.605 55.9221 186.606 52.5295 186.606 52.5295Z" fill="#263238"/>
<path d="M170.511 78.0581C171.761 79.2728 173.428 79.9632 175.171 79.9874C177.473 79.9874 177.967 77.8064 176.727 75.9796C175.627 74.3392 173.111 72.3633 171.079 73.2487C169.047 74.1342 168.982 76.5575 170.511 78.0581Z" fill="#E4897B"/>
<path d="M182.282 69.7256C182.422 70.2662 182.822 70.6577 183.214 70.5645C183.605 70.4713 183.745 69.9773 183.605 69.4367C183.466 68.8961 183.065 68.5047 182.673 68.6072C182.282 68.7097 182.142 69.185 182.282 69.7256Z" fill="#263238"/>
<path d="M188.433 68.3741C188.573 68.9147 188.974 69.3062 189.365 69.213C189.757 69.1198 189.897 68.6351 189.757 68.0945C189.617 67.5539 189.225 67.1625 188.825 67.2557C188.424 67.3489 188.321 67.8336 188.433 68.3741Z" fill="#263238"/>
<path d="M186.551 69.0732C187.61 70.5822 188.864 71.9454 190.279 73.1276C189.967 73.4735 189.584 73.747 189.156 73.9289C188.728 74.1109 188.265 74.1969 187.8 74.1808L186.551 69.0732Z" fill="#DE5753"/>
<path d="M185.525 76.1474C185.911 76.147 186.296 76.1032 186.672 76.0169C186.713 76.0059 186.749 75.9795 186.771 75.9431C186.794 75.9067 186.802 75.8631 186.793 75.8212C186.782 75.7798 186.756 75.7443 186.719 75.7217C186.683 75.6992 186.639 75.6915 186.597 75.7C185.911 75.8529 185.199 75.8484 184.515 75.687C183.83 75.5256 183.191 75.2114 182.645 74.768C182.614 74.7378 182.572 74.7209 182.529 74.7209C182.485 74.7209 182.444 74.7378 182.412 74.768C182.382 74.7993 182.365 74.841 182.365 74.8845C182.365 74.928 182.382 74.9697 182.412 75.001C183.278 75.746 184.383 76.1532 185.525 76.1474Z" fill="#263238"/>
<path d="M179.84 68.1692C179.903 68.1703 179.966 68.1522 180.019 68.1173C180.072 68.0824 180.114 68.0323 180.138 67.9735C180.291 67.5995 180.532 67.268 180.84 67.0068C181.148 66.7456 181.515 66.5625 181.909 66.4729C181.952 66.4672 181.993 66.4529 182.031 66.431C182.068 66.4091 182.101 66.3799 182.127 66.3452C182.153 66.3105 182.172 66.2709 182.183 66.2288C182.193 66.1867 182.195 66.143 182.189 66.1001C182.175 66.0142 182.128 65.9371 182.059 65.885C181.989 65.8328 181.902 65.8097 181.816 65.8205C181.314 65.9228 180.844 66.146 180.448 66.4709C180.052 66.7957 179.74 67.2123 179.542 67.6845C179.523 67.7235 179.513 67.7658 179.512 67.8089C179.51 67.852 179.518 67.8949 179.533 67.935C179.549 67.9751 179.573 68.0116 179.603 68.0423C179.633 68.0729 179.669 68.0971 179.709 68.1133C179.748 68.1413 179.793 68.1603 179.84 68.1692Z" fill="#263238"/>
<path d="M190.512 65.6991C190.587 65.6985 190.659 65.6722 190.717 65.6246C190.784 65.5683 190.826 65.4881 190.835 65.401C190.843 65.314 190.818 65.227 190.763 65.1586C190.435 64.75 190.017 64.4224 189.542 64.201C189.067 63.9796 188.547 63.8703 188.023 63.8817C187.98 63.8852 187.938 63.8972 187.9 63.9169C187.862 63.9366 187.828 63.9637 187.8 63.9967C187.773 64.0296 187.752 64.0677 187.739 64.1087C187.726 64.1498 187.721 64.193 187.725 64.2358C187.727 64.2792 187.738 64.3216 187.758 64.3605C187.777 64.3994 187.804 64.4339 187.837 64.4618C187.87 64.4898 187.909 64.5106 187.951 64.5231C187.992 64.5355 188.036 64.5392 188.079 64.5341C188.498 64.5297 188.913 64.6215 189.291 64.8025C189.669 64.9834 190.001 65.2487 190.26 65.578C190.29 65.616 190.328 65.6468 190.372 65.6678C190.415 65.6888 190.463 65.6995 190.512 65.6991Z" fill="#263238"/>
<path d="M158.823 99.4016C158.096 100.529 157.49 101.527 156.875 102.608C156.259 103.689 155.672 104.733 155.094 105.814C153.957 107.967 152.885 110.167 151.907 112.413C149.854 117.011 148.313 121.822 147.312 126.757L147.219 127.232L147.172 127.465L147.107 127.857C147.028 128.378 146.987 128.904 146.986 129.432C146.995 130.315 147.089 131.195 147.265 132.06C147.581 133.487 148.037 134.88 148.626 136.217C149.672 138.56 150.92 140.809 152.354 142.937C155.065 146.984 158.148 150.769 161.563 154.243L165.617 150.99C163.362 147.057 161.115 142.974 159.233 138.976C158.307 137.064 157.516 135.089 156.865 133.067C156.599 132.223 156.418 131.355 156.325 130.476C156.292 130.188 156.292 129.897 156.325 129.609C156.325 129.525 156.325 129.45 156.381 129.441C156.437 129.432 156.381 129.441 156.381 129.395L156.437 129.208L156.548 128.826C157.137 126.77 157.837 124.748 158.645 122.768C159.466 120.745 160.379 118.732 161.339 116.728C162.299 114.724 163.334 112.748 164.396 110.772C164.918 109.784 165.468 108.806 166.018 107.837L167.658 105.04L158.823 99.4016Z" fill="#E4897B"/>
<path d="M180.25 330.873C180.715 330.919 181.181 330.79 181.555 330.509C181.66 330.392 181.735 330.251 181.77 330.097C181.806 329.944 181.803 329.784 181.76 329.633C181.74 329.531 181.694 329.436 181.627 329.356C181.56 329.276 181.475 329.214 181.378 329.176C180.53 328.841 178.582 330.183 178.358 330.332C178.331 330.349 178.309 330.375 178.297 330.405C178.286 330.435 178.284 330.468 178.293 330.5C178.298 330.531 178.312 330.56 178.334 330.584C178.355 330.607 178.383 330.623 178.414 330.63C179.016 330.775 179.631 330.856 180.25 330.873ZM181.061 329.447C181.126 329.436 181.192 329.436 181.257 329.447C181.304 329.464 181.346 329.494 181.377 329.533C181.409 329.573 181.428 329.62 181.434 329.67C181.468 329.768 181.475 329.873 181.456 329.974C181.436 330.076 181.39 330.17 181.322 330.248C181.005 330.565 180.101 330.602 178.862 330.36C179.521 329.903 180.271 329.594 181.061 329.456V329.447Z" fill="white"/>
<path d="M178.451 330.64H178.535C179.225 330.229 180.25 328.776 180.092 328.03C180.064 327.893 179.991 327.77 179.884 327.68C179.778 327.59 179.644 327.54 179.504 327.536C179.381 327.52 179.256 327.532 179.139 327.571C179.021 327.609 178.913 327.674 178.824 327.76C178.125 328.44 178.283 330.425 178.283 330.509C178.287 330.537 178.297 330.563 178.313 330.586C178.33 330.609 178.351 330.627 178.377 330.64H178.451ZM179.383 327.843H179.458C179.691 327.843 179.747 327.983 179.765 328.076C179.868 328.57 179.187 329.661 178.591 330.164C178.505 329.408 178.662 328.644 179.038 327.983C179.085 327.938 179.141 327.902 179.201 327.878C179.262 327.854 179.327 327.842 179.392 327.843H179.383Z" fill="white"/>
<path d="M163.231 326.958C163.403 326.963 163.575 326.931 163.734 326.865C163.857 326.816 163.966 326.737 164.052 326.637C164.138 326.536 164.199 326.416 164.228 326.287C164.252 326.209 164.255 326.125 164.237 326.045C164.219 325.965 164.181 325.891 164.126 325.83C163.501 325.075 160.23 325.299 159.857 325.327C159.822 325.328 159.789 325.341 159.762 325.362C159.735 325.384 159.716 325.414 159.708 325.448C159.701 325.482 159.704 325.517 159.717 325.548C159.731 325.58 159.753 325.607 159.782 325.625C160.823 326.311 161.999 326.766 163.231 326.958ZM161.255 325.597C162.401 325.597 163.604 325.709 163.874 326.035C163.89 326.061 163.898 326.09 163.898 326.119C163.898 326.149 163.89 326.178 163.874 326.203C163.858 326.284 163.823 326.359 163.771 326.423C163.719 326.486 163.652 326.536 163.576 326.567C163.054 326.781 161.879 326.427 160.397 325.635L161.255 325.597Z" fill="white"/>
<path d="M159.867 325.653C160.799 325.653 162.896 324.936 163.054 324.19C163.054 324.004 163.054 323.743 162.607 323.528C161.004 322.773 159.764 325.308 159.708 325.392C159.697 325.419 159.691 325.447 159.691 325.476C159.691 325.505 159.697 325.533 159.708 325.56C159.724 325.589 159.746 325.612 159.774 325.629C159.802 325.645 159.834 325.654 159.867 325.653ZM162.02 323.724C162.178 323.722 162.334 323.757 162.476 323.826C162.672 323.92 162.765 324.022 162.747 324.115C162.653 324.553 161.144 325.169 160.156 325.299C160.454 324.796 161.171 323.724 162.02 323.724Z" fill="white"/>
<path d="M163.772 149.48L170.613 148.278L167.08 156.246C167.08 156.246 160.808 156.246 161.087 152.966L163.772 149.48Z" fill="#E4897B"/>
<path d="M175.786 152.285L172.551 158.716L167.118 156.246L170.65 148.278L175.786 152.285Z" fill="#E4897B"/>
<path d="M156.231 310.983L166.549 320.695L169.876 317.125L158.068 306.37L156.231 310.983Z" fill="#407BFF"/>
<path opacity="0.6" d="M156.231 310.983L166.549 320.695L169.876 317.125L158.068 306.37L156.231 310.983Z" fill="white"/>
<path d="M167.677 320.741H181.35L182.105 315.932L167.015 316.687L167.677 320.741Z" fill="#407BFF"/>
<path opacity="0.6" d="M167.677 320.741H181.35L182.105 315.932L167.015 316.687L167.677 320.741Z" fill="white"/>
<path d="M160.612 94.6388C154.088 95.5708 147.405 118.238 147.405 118.238L161.386 125.992C161.386 125.992 167.062 115.218 169.774 107.221C172.617 98.8423 167.593 93.6136 160.612 94.6388Z" fill="#407BFF"/>
<path opacity="0.7" d="M160.612 94.6388C154.088 95.5708 147.405 118.238 147.405 118.238L161.386 125.992C161.386 125.992 167.062 115.218 169.774 107.221C172.617 98.8423 167.593 93.6136 160.612 94.6388Z" fill="white"/>
<path opacity="0.2" d="M184.072 97.2581L186.868 100.231L185.498 103.102L183.27 103.204L181.369 100.464L184.072 97.2581Z" fill="black"/>
<path d="M185.255 102.589C185.255 102.589 190.558 124.557 190.763 129.124C191.052 135.406 188.424 146.134 188.424 146.134C188.424 146.134 184.696 137.214 183.932 128.928C183.167 120.643 183.736 107.24 183.391 102.589H185.255Z" fill="#407BFF"/>
<path opacity="0.2" d="M185.255 102.589C185.255 102.589 190.558 124.557 190.763 129.124C191.052 135.406 188.424 146.134 188.424 146.134C188.424 146.134 184.696 137.214 183.932 128.928C183.167 120.643 183.736 107.24 183.391 102.589H185.255Z" fill="black"/>
<path d="M184.071 97.2581C183.009 98.9774 182.394 100.935 182.282 102.953C182.282 102.953 170.65 98.8518 171.2 92.8402C171.2 92.8402 172.85 91.8616 173.893 91.0693C173.893 91.0693 174.285 94.8534 184.071 97.2581Z" fill="#407BFF"/>
<path opacity="0.6" d="M184.071 97.2581C183.009 98.9774 182.394 100.935 182.282 102.953C182.282 102.953 170.65 98.8518 171.2 92.8402C171.2 92.8402 172.85 91.8616 173.893 91.0693C173.893 91.0693 174.285 94.8534 184.071 97.2581Z" fill="white"/>
<path d="M184.071 97.2579C185.14 98.8855 185.911 100.691 186.345 102.589C186.345 102.589 191.611 99.0288 190.027 93.0917C189.062 92.7028 188.068 92.3912 187.054 92.1597C187.054 92.1597 187.743 95.9997 184.071 97.2579Z" fill="#407BFF"/>
<path opacity="0.6" d="M184.071 97.2579C185.14 98.8855 185.911 100.691 186.345 102.589C186.345 102.589 191.611 99.0288 190.027 93.0917C189.062 92.7028 188.068 92.3912 187.054 92.1597C187.054 92.1597 187.743 95.9997 184.071 97.2579Z" fill="white"/>
</svg>
