<?xml version="1.0" standalone="no"?><!DOCTYPE svg PUBLIC "-//W3C//DTD SVG 1.1//EN" "http://www.w3.org/Graphics/SVG/1.1/DTD/svg11.dtd"><svg t="1693884477696" class="icon" viewBox="0 0 1024 1024" version="1.1" xmlns="http://www.w3.org/2000/svg" p-id="6684" xmlns:xlink="http://www.w3.org/1999/xlink" width="200" height="200"><path d="M934.0416 637.15328c36.18816 0 65.536 29.3376 65.536 65.536v81.47968c0 36.19328-29.34784 65.536-65.536 65.536h-327.0144c-36.1984 0-65.536-29.34272-65.536-65.536v-81.47968c0-36.1984 29.3376-65.536 65.536-65.536h327.0144z m-521.15456-2.048c36.19328 0 65.536 29.34272 65.536 65.536v81.47968c0 36.1984-29.34272 65.536-65.536 65.536H184.03328c-36.1984 0-65.536-29.3376-65.536-65.536v-81.47456c0-36.1984 29.3376-65.536 65.536-65.536z m316.65152-243.2c36.19328 0 65.536 29.3376 65.536 65.536v81.47456c0 36.1984-29.34272 65.536-65.536 65.536H607.0272c-36.1984 0-65.536-29.3376-65.536-65.536V457.44128c0-36.1984 29.3376-65.536 65.536-65.536h122.51136z m-316.65152-2.048c36.19328 0 65.536 29.34272 65.536 65.536v81.47968c0 36.1984-29.34272 65.536-65.536 65.536h-327.0144c-36.1984 0-65.536-29.3376-65.536-65.536V455.39328c0-36.19328 29.3376-65.536 65.536-65.536z m525.24032-239.11424c36.1984 0 65.536 29.3376 65.536 65.536v81.47456c0 36.1984-29.3376 65.536-65.536 65.536h-327.0144c-36.19328 0-65.536-29.3376-65.536-65.536V216.27904c0-36.1984 29.34272-65.536 65.536-65.536h327.0144z m-529.3312-2.048c36.19328 0 65.536 29.34272 65.536 65.536v81.47968c0 36.1984-29.34272 65.536-65.536 65.536H237.20448c-36.1984 0-65.536-29.3376-65.536-65.536V214.23104c0-36.19328 29.3376-65.536 65.536-65.536z" fill="#6464FF" p-id="6685"></path></svg>