<svg width="15" height="8" viewBox="0 0 104 100" fill="none" xmlns="http://www.w3.org/2000/svg" style="opacity: 1; transform: none;"><path d="M18.0258 11.2704C18.0258 5.34458 22.8296 0.540771 28.7554 0.540771H93.1331C99.0589 0.540771 103.863 5.34458 103.863 11.2704C103.863 17.1962 99.0589 22 93.1331 22H66.2146C63.3038 22 60.9442 24.3596 60.9442 27.2704V27.2704C60.9442 30.1811 63.3038 32.5408 66.2146 32.5408H75.1073C81.0331 32.5408 85.8369 37.3446 85.8369 43.2704C85.8369 49.1962 81.0331 54 75.1073 54H10.7296C4.80381 54 0 49.1962 0 43.2704C0 37.3446 4.80381 32.5408 10.7296 32.5408H44.7296C47.6404 32.5408 50 30.1811 50 27.2704V27.2704C50 24.3596 47.6404 22 44.7296 22H28.7554C22.8296 22 18.0258 17.1962 18.0258 11.2704Z" fill="white"></path></svg>
